<svg xmlns="http://www.w3.org/2000/svg" xmlns:xlink="http://www.w3.org/1999/xlink" version="1.2" baseProfile="tiny" id="Слой_1" x="0px" y="0px" viewBox="0 0 1200 218" overflow="visible" xml:space="preserve">
<g>
	<path fill="#273b98" d="M108.04,10.89c16.98,0.13,30.78,4.01,41.39,11.64c10.61,7.63,14.79,17.48,12.54,29.55   c-1.46,7.56-5.54,13.67-12.24,18.31c-6.7,4.65-13.83,7.03-21.39,7.16c10.21,1.33,18.01,6.17,23.38,14.53s6.93,17.31,4.68,26.87   c-2.52,10.22-7.6,18.01-15.22,23.38c-7.63,5.37-16.75,8.12-27.36,8.26c-14.33,0.13-27.26-4.38-38.81-13.53   c-7.16,8.89-17.38,13.4-30.65,13.53c-9.69,0.26-17.78-1.49-24.28-5.27c-6.5-3.78-9.55-9.52-9.15-17.21   c0.26-7.29,3.18-12.94,8.76-16.92c5.57-3.98,12.37-5.8,20.4-5.47c8.03,0.33,15.75,2.69,23.18,7.06c1.72-4.38,4.41-13.36,8.06-26.96   c3.65-13.6,7.36-24.41,11.14-32.44c3.78-8.03,8.39-13.36,13.83-16.02c3.31-1.32,7.03-1.39,11.14-0.2c4.11,1.19,6.3,2.72,6.57,4.58   c-3.45,3.05-7.96,12.94-13.53,29.65c8.76-0.26,16.42-2.19,22.98-5.77S134.17,57,135.9,50.5c1.99-7.29,0.3-12.97-5.07-17.01   c-5.37-4.05-13.37-6.13-23.98-6.27c-10.22-0.13-19.44,1.59-27.66,5.17c-8.23,3.58-14.06,8.56-17.51,14.92   c-3.45,6.37-3.38,13.8,0.2,22.29c-0.53,2.92-2.56,5.57-6.07,7.96c-3.52,2.39-6.87,3.12-10.05,2.19   c-9.02-6.1-13.33-14.06-12.94-23.88c0.4-9.82,4.51-18.31,12.34-25.47c7.03-6.37,16.12-11.24,27.26-14.63S95.43,10.76,108.04,10.89z    M45.55,120.14c-5.97-0.66-9.88,1-11.74,4.98c-1.46,3.32-0.73,6.04,2.19,8.16c2.12,1.59,5.11,2.06,8.96,1.39   c5.44-0.93,9.75-4.18,12.94-9.75C52.71,122,48.6,120.41,45.55,120.14z M96.1,84.52c-7.3,22.95-11.74,36.22-13.33,39.8   c6.1,5.04,12.5,8.36,19.2,9.95c6.7,1.59,12.9,0.63,18.61-2.88c5.7-3.51,9.42-9.78,11.14-18.81c1.19-6.9,0.2-12.6-2.98-17.11   c-3.18-4.51-7.76-7.63-13.73-9.35C109.69,84.39,103.39,83.86,96.1,84.52z"/>
	<path fill="#273b98" d="M221.27,64.62c7.56,0.13,13.7,2.06,18.41,5.77c4.71,3.72,7.29,8.03,7.76,12.94   c0.46,4.91-0.43,10.02-2.69,15.32c-3.58,7.43-9.75,12.71-18.51,15.82c-8.76,3.12-18.77,3.55-30.05,1.29   c-0.13,5.84,1.66,10.42,5.37,13.73c3.71,3.32,9.08,5.17,16.12,5.57c7.56,0.53,15.42-1.46,23.58-5.97   c8.16-4.51,14.76-12.07,19.8-22.69c0.53-0.66,1.46-0.83,2.79-0.5c1.33,0.33,2.55,1.06,3.68,2.19c1.13,1.13,1.56,2.02,1.29,2.69   c-13.27,27.33-32.9,40.73-58.9,40.2c-15.12-0.4-26.07-4.71-32.83-12.94c-6.77-8.22-9.15-18.24-7.16-30.05   c2.12-13.26,7.99-23.91,17.61-31.94C197.15,68.04,208.4,64.23,221.27,64.62z M218.68,80.74c-4.11-0.4-8.26,1.73-12.44,6.37   c-4.18,4.65-7.13,10.48-8.86,17.51c6.37,0.67,11.74-0.23,16.12-2.69c4.38-2.45,7.36-5.8,8.96-10.05c1.32-2.65,1.69-5.14,1.09-7.46   C222.96,82.1,221.33,80.88,218.68,80.74z"/>
	<path fill="#273b98" d="M309.22,64.62c7.83-1.19,16.22-0.86,25.17,1c8.96,1.86,16.08,5.51,21.39,10.94   c0.93,1.86-0.1,4.55-3.08,8.06c-2.99,3.52-5.34,4.94-7.06,4.28c-8.63-6.63-18.31-9.42-29.05-8.36c-5.84,0.53-11.34,3.08-16.52,7.66   s-9.15,10.32-11.94,17.21c-2.79,6.1-4.38,11.78-4.78,17.01c-0.4,5.24,0.4,8.72,2.39,10.45c4.38,4.25,10.08,1.26,17.11-8.96   c7.03-10.21,12.34-21.36,15.92-33.43c2.39-2.25,6.57-2.69,12.54-1.29c5.97,1.39,9.35,3.28,10.15,5.67   c-3.72,13.27-5.9,21.49-6.57,24.68c-2.26,9.95-1.13,14.92,3.38,14.92c3.58-0.13,8.12-2.95,13.63-8.46   c5.5-5.5,9.85-11.97,13.03-19.4c0.53-0.66,1.46-0.83,2.79-0.5c1.32,0.33,2.59,1.03,3.78,2.09c1.19,1.06,1.59,1.92,1.19,2.59   c-5.97,11.94-12.93,21.49-20.89,28.66c-7.96,7.16-16.52,10.75-25.67,10.75c-4.91,0-8.53-2.15-10.85-6.47   c-2.32-4.31-2.95-10.12-1.89-17.41c-4.25,7.43-8.82,13.3-13.73,17.61c-4.91,4.31-11.14,6.53-18.71,6.67   c-7.7,0.26-13.9-2.25-18.61-7.56c-4.71-5.3-6.27-13.53-4.68-24.68c1.99-13.66,8.16-25.57,18.51-35.72   C286.54,72.48,297.55,66.48,309.22,64.62z"/>
	<path fill="#273b98" d="M426.83,66.61c1.33-2.25,5.47-3.08,12.44-2.49s11.11,2.42,12.44,5.47c-0.53,2.26-1.43,5.51-2.69,9.75   c-1.26,4.25-2.42,8.19-3.48,11.84c-1.06,3.65-2.19,7.73-3.38,12.24c-1.19,4.51-2.16,8.53-2.89,12.04c-0.73,3.52-1.26,6.8-1.59,9.85   c-0.33,3.05-0.3,5.41,0.1,7.06c0.4,1.66,1.26,2.49,2.59,2.49c3.31,0,7.49-2.79,12.54-8.36c5.04-5.57,9.28-12.21,12.74-19.9   c0.66-0.8,1.62-1.03,2.88-0.7c1.26,0.33,2.45,1.06,3.58,2.19c1.13,1.13,1.49,2.02,1.09,2.69c-13.67,26.67-28.19,39.87-43.58,39.6   c-5.31-0.13-9.12-2.62-11.44-7.46c-2.32-4.84-2.69-10.51-1.09-17.01c-10.48,16.98-23.08,25.27-37.81,24.88   c-8.49,0-14.1-2.65-16.82-7.96c-2.72-5.3-3.21-11.94-1.49-19.9c1.46-7.56,4.31-18.57,8.56-33.03c4.24-14.46,6.5-22.15,6.77-23.08   c1.33-2.52,5.7-3.45,13.13-2.79c7.43,0.67,11.28,2.46,11.54,5.37c-0.4,1.33-1.99,7.2-4.78,17.61c-2.79,10.42-4.84,18.54-6.17,24.38   c-2.66,10.88-3.65,17.51-2.99,19.9c0.53,1.99,1.86,2.98,3.98,2.98c3.71-0.13,7.99-2.98,12.83-8.56c4.84-5.57,8.59-12.07,11.24-19.5   C419.07,93.48,422.98,80.28,426.83,66.61z"/>
	<path fill="#273b98" d="M491.9,150.79c-5.84,0-10.75-0.93-14.73-2.79c-3.98-1.86-6.87-4.71-8.66-8.56   c-1.79-3.85-3.02-7.86-3.68-12.04c-0.67-4.18-0.6-9.42,0.2-15.72c0.8-6.3,1.72-12.01,2.79-17.11c1.06-5.11,2.52-11.31,4.38-18.61   h-5.57c-1.86-1.06-2.42-3.68-1.69-7.86c0.73-4.18,2.09-6.53,4.08-7.06h7.36c6.1-19.63,11.01-34.63,14.73-44.97   c1.72-2.39,6.3-3.08,13.73-2.09c7.43,1,11.41,3.08,11.94,6.27c-3.98,11.54-8.29,25.14-12.93,40.79h14.92   c1.99,1.73,2.65,4.45,1.99,8.16c-0.67,3.72-1.86,5.97-3.58,6.77h-17.31c-4.11,13.93-6.7,23.42-7.76,28.46   c-4.78,20.03-3.25,30.32,4.58,30.85c5.17,0.13,10.81-2.22,16.92-7.06c6.1-4.84,11.41-12.11,15.92-21.79   c0.53-0.66,1.42-0.83,2.69-0.5c1.26,0.33,2.49,1.06,3.68,2.19c1.19,1.13,1.59,2.09,1.19,2.89   C525.14,137.39,510.08,150.66,491.9,150.79z"/>
	<path fill="#273b98" d="M548.02,207.9c-7.56,0.13-13.53-1.73-17.91-5.57c-4.38-3.85-6.1-9.15-5.17-15.92   c0.53-3.98,1.83-7.56,3.88-10.75c2.05-3.18,4.34-5.8,6.87-7.86c2.52-2.06,5.94-4.05,10.25-5.97c4.31-1.93,8.06-3.35,11.24-4.28   c3.18-0.93,7.36-2.12,12.54-3.58c2.25-5.84,4.97-14.06,8.16-24.68c-5.31,7.83-11.04,13.4-17.21,16.72   c-6.17,3.31-12.17,4.84-18.01,4.58c-8.76-0.27-14.36-3.12-16.82-8.56c-2.45-5.44-2.62-12.34-0.5-20.7   c1.59-6.63,4.18-16.08,7.76-28.36c3.58-12.27,6.04-20.99,7.36-26.17c1.59-2.39,5.94-3.28,13.04-2.69c7.1,0.6,10.91,2.36,11.44,5.27   c-5.17,19.5-9.35,35.89-12.54,49.15c-1.33,4.51-1.89,8.29-1.69,11.34c0.2,3.05,1.69,4.51,4.48,4.38c3.71-0.26,7.83-3.21,12.34-8.86   c4.51-5.64,8.22-12.17,11.14-19.6c3.98-10.48,8.03-23.55,12.14-39.2c2.12-2.52,6.63-3.31,13.53-2.39   c6.9,0.93,10.68,2.79,11.34,5.57c-0.13,0.53-7.23,26.2-21.29,77.01c7.16-3.05,13.53-7.76,19.1-14.13   c5.57-6.37,11.08-15.12,16.52-26.27c0.53-0.66,1.42-0.83,2.69-0.5c1.26,0.33,2.49,1.03,3.68,2.09c1.19,1.06,1.59,1.99,1.19,2.79   c-7.03,14.06-14.03,24.78-20.99,32.14c-6.96,7.36-15.56,13.23-25.77,17.61c-5.44,18.44-10.98,30.94-16.62,37.51   C568.55,204.62,559.83,207.9,548.02,207.9z M551.8,191.59c4.78-1.06,8.49-5.11,11.14-12.14c0.53-1.46,1.19-3.62,1.99-6.47   c0.8-2.85,1.26-4.61,1.39-5.27c-7.83,3.05-13.53,6.77-17.11,11.14c-2.66,3.05-3.75,6.07-3.28,9.05   C546.39,190.89,548.35,192.12,551.8,191.59z"/>
	<path fill="#273b98" d="M738.66,14.08c2.92-3.18,8.49-4.24,16.72-3.18c6.5,0.8,9.82,2.32,9.95,4.58v0.8   c-4.51,12.47-11.54,34.1-21.09,64.87c0.93,0,4.64-0.13,11.14-0.4c1.72,1.19,2.49,3.58,2.29,7.16c-0.2,3.58-1.43,6.17-3.68,7.76   c-1.73,0-4.18,0.03-7.36,0.1c-3.18,0.07-5.57,0.17-7.16,0.3c-1.99,6.24-3.55,11.04-4.68,14.43c-1.13,3.38-2.62,7.33-4.48,11.84   c-1.86,4.51-3.58,7.96-5.17,10.35c-1.59,2.39-3.58,4.91-5.97,7.56c-2.39,2.66-5.01,4.61-7.86,5.87c-2.85,1.26-6.14,2.36-9.85,3.28   c-3.72,0.93-7.89,1.39-12.54,1.39c-6.1,0-11.51-0.96-16.22-2.89c-4.71-1.92-8.33-4.48-10.84-7.66c-2.52-3.18-4.21-6.73-5.08-10.65   c-0.86-3.91-0.83-7.79,0.1-11.64c0.93-3.85,2.82-7.49,5.67-10.94c2.85-3.45,6.4-6.23,10.65-8.36c2.79-1.19,6.37-0.2,10.75,2.99   c4.38,3.18,5.5,6.04,3.38,8.56c-4.65,5.57-6.5,11.08-5.57,16.52c0.93,5.44,4.05,8.16,9.35,8.16c1.72,0,3.31-0.36,4.78-1.09   c1.46-0.73,2.85-2.06,4.18-3.98c1.32-1.92,2.45-3.75,3.38-5.47c0.93-1.72,2.02-4.41,3.28-8.06c1.26-3.65,2.25-6.7,2.99-9.15   c0.73-2.45,1.82-6.13,3.28-11.04h-11.94c-2.12-1.06-2.85-3.58-2.19-7.56c0.66-3.98,2.06-6.37,4.18-7.16   c6.77,0,11.54-0.06,14.33-0.2c6.5-22.42,12.01-38.87,16.52-49.35c-3.72,3.45-8.03,5.57-12.94,6.37c-4.91,0.8-9.39,0.76-13.43-0.1   c-4.05-0.86-8.43-1.19-13.13-1c-4.71,0.2-8.66,1.43-11.84,3.68c-2.66,1.73-4.41,3.88-5.27,6.47c-0.86,2.59-0.7,4.75,0.5,6.47   c0.93,2.26,2.88,3.58,5.87,3.98s6.07-0.46,9.25-2.59c2.25-1.59,4.68-0.86,7.26,2.19c2.59,3.05,3.28,5.31,2.09,6.77   c-5.71,6.64-13.67,9.69-23.88,9.15c-10.22-0.53-17.58-3.65-22.09-9.35c-3.18-3.85-4.91-8.36-5.17-13.53   c-0.27-5.17,1.16-10.21,4.28-15.12c3.12-4.91,7.73-8.62,13.83-11.14c5.57-2.39,11.18-3.71,16.82-3.98   c5.64-0.26,10.61,0.03,14.93,0.9c4.31,0.86,8.59,1.56,12.83,2.09c4.24,0.53,8.46,0.17,12.64-1.09   C730.6,20.68,734.68,18.06,738.66,14.08z"/>
	<path fill="#273b98" d="M814.28,64.03c11.41,0,19.83,3.42,25.27,10.25c5.44,6.83,7.69,15.16,6.77,24.97   c-0.93,9.82-4.38,19.64-10.35,29.45c12.2,1.19,21.82-6.23,28.85-22.29c0.53-0.66,1.46-0.83,2.79-0.5c1.33,0.33,2.59,1.03,3.78,2.09   c1.19,1.06,1.59,1.99,1.19,2.79c-3.18,6.64-6.74,12.04-10.65,16.22c-3.92,4.18-7.76,7.03-11.54,8.56   c-3.78,1.53-7.7,2.52-11.74,2.99c-4.05,0.47-7.8,0.23-11.24-0.7c-9.55,8.76-21.03,13.13-34.43,13.13   c-11.54,0-20.33-3.41-26.37-10.25c-6.04-6.83-7.46-17.54-4.28-32.14c2.92-13.66,9.22-24.48,18.9-32.44   C790.93,68.21,801.94,64.16,814.28,64.03z M810.9,80.15c-4.65,0.13-8.89,2.95-12.74,8.46c-3.85,5.51-6.7,12.11-8.56,19.8   c-4.11,17.78-1.66,26.67,7.36,26.67c3.98,0,7.56-1.79,10.75-5.37c-1.73-2.92-1.73-5.87,0-8.86c1.72-2.99,4.18-4.34,7.36-4.08   c1.72-4.51,3.02-8.92,3.88-13.23c0.86-4.31,1.29-8.26,1.29-11.84s-0.8-6.43-2.39-8.56C816.27,81.01,813.95,80.02,810.9,80.15z"/>
	<path fill="#273b98" d="M869.4,116.76c-0.67,0.8-1.66,1.06-2.99,0.8c-1.33-0.26-2.56-0.93-3.68-1.99c-1.12-1.06-1.42-2.06-0.9-2.98   c7.96-15.79,13.66-30.05,17.11-42.79c-5.57-8.36-6.1-15.45-1.59-21.29c3.31-4.11,7.29-5.9,11.94-5.37   c4.78,0.53,7.43,3.58,7.96,9.15c0.26,2.26,0,4.91-0.8,7.96c1.59,1.46,3.78,3.42,6.57,5.87c2.79,2.46,5.14,4.51,7.06,6.17   c1.92,1.66,3.91,3.65,5.97,5.97c2.06,2.32,3.51,4.48,4.38,6.47c0.86,1.99,1.16,4.18,0.9,6.57c-0.27,2.39-1.26,4.71-2.98,6.96   c-8.76,11.54-13.53,20.57-14.33,27.06c-0.4,2.92,0,5.24,1.19,6.97c1.19,1.73,3.25,2.52,6.17,2.39c5.17,0,10.88-2.25,17.11-6.77   c6.23-4.51,11.74-11.67,16.52-21.49c0.53-0.66,1.42-0.8,2.69-0.4c1.26,0.4,2.45,1.13,3.58,2.19c1.13,1.06,1.56,1.92,1.29,2.59   c-12.34,26.54-29.25,39.8-50.75,39.8c-8.23,0.13-14.43-1.72-18.61-5.57c-4.18-3.85-6.2-9.08-6.07-15.72   c0-3.85,0.93-8.16,2.79-12.94c1.86-4.78,3.71-8.76,5.57-11.94c1.86-3.18,4.44-7.29,7.76-12.34c0.66-0.93,1.09-1.86,1.29-2.79   c0.2-0.93,0.17-1.89-0.1-2.89c-0.27-1-0.5-1.82-0.7-2.49c-0.2-0.66-0.73-1.52-1.59-2.59c-0.86-1.06-1.46-1.79-1.79-2.19   c-0.33-0.4-1.03-1.13-2.09-2.19c-1.06-1.06-1.66-1.66-1.79-1.79C882.8,88.84,877.09,102.7,869.4,116.76z"/>
	<path fill="#273b98" d="M1055.26,150.79c-8.49,0.26-14.26-1.69-17.31-5.87c-3.05-4.18-3.78-10.11-2.19-17.81   c0.4-2.12,1.09-5.21,2.09-9.25c1-4.05,2.16-8.59,3.48-13.63c1.33-5.04,2.25-8.69,2.79-10.95c0.93-2.65,1.13-5.14,0.6-7.46   c-0.53-2.32-2.12-3.41-4.78-3.28c-2.79,0.13-6.04,1.83-9.75,5.07c-3.72,3.25-6.77,6.93-9.15,11.04   c-0.4,1.73-4.31,17.78-11.74,48.16c-1.33,2.39-5.84,3.58-13.53,3.58c-7.7,0-11.94-1.46-12.74-4.38   c2.92-12.74,7.29-30.71,13.13-53.93c0.66-2.25,0.73-4.38,0.2-6.37c-0.53-1.99-1.92-2.92-4.18-2.79   c-5.57,0.27-12.01,5.57-19.3,15.92c-4.11,14.46-8.16,30.45-12.14,47.96c-0.53,1.19-2.26,2.09-5.17,2.69   c-2.92,0.6-5.94,0.89-9.05,0.89c-3.12,0-5.94-0.5-8.46-1.49c-2.52-1-3.78-2.35-3.78-4.08c8.09-30.38,15.32-56.58,21.69-78.6   c2.12-2.25,6.53-3.02,13.23-2.29c6.7,0.73,10.51,2.62,11.44,5.67c-0.53,1.46-1.23,3.72-2.09,6.77c-0.86,3.05-1.49,5.11-1.89,6.17   c4.38-4.91,9.45-9.22,15.22-12.94c5.77-3.71,11.24-5.57,16.42-5.57s9.09,1.56,11.74,4.68c2.65,3.12,3.65,7.4,2.99,12.84   c10.08-11.67,20.63-17.51,31.64-17.51c15.52,0,21.09,8.76,16.72,26.27c-0.4,1.73-1.03,4.05-1.89,6.96   c-0.86,2.92-1.69,5.67-2.49,8.26s-1.63,5.37-2.49,8.36c-0.86,2.98-1.53,5.71-1.99,8.16c-0.47,2.46-0.73,4.68-0.8,6.67   c-0.07,1.99,0.23,3.52,0.9,4.58c0.66,1.06,1.72,1.59,3.18,1.59c3.31,0,7.46-2.75,12.44-8.26c4.97-5.5,9.25-12.24,12.83-20.2   c0.53-0.66,1.42-0.83,2.69-0.5c1.26,0.33,2.49,1.06,3.68,2.19c1.19,1.13,1.59,2.02,1.19,2.69   C1085.64,136.66,1071.18,150,1055.26,150.79z"/>
	<path fill="#273b98" d="M1122.52,151.39c-6.1,0-11.61-1.83-16.52-5.47c-4.91-3.65-7.76-8.79-8.56-15.42   c0.93-2.79,3.08-4.88,6.47-6.27c3.38-1.39,6.07-1.49,8.06-0.3c-0.13,3.18,0.76,5.87,2.69,8.06c1.92,2.19,4.34,3.28,7.26,3.28   c3.18,0,5.7-1.19,7.56-3.58c-2.52-2.39-3.35-5.27-2.49-8.66c0.86-3.38,2.82-5.21,5.87-5.47c-0.13-5.44-1.46-13.33-3.98-23.68   c-2.52-10.35-4.05-17.31-4.58-20.9c-8.49,8.49-18.04,23.08-28.66,43.78c-0.67,0.8-1.66,1.06-2.99,0.8   c-1.33-0.26-2.56-0.93-3.68-1.99c-1.12-1.06-1.42-2.06-0.9-2.98c10.21-21.49,21.22-37.88,33.03-49.15   c6.37-6.23,13.26-9.02,20.7-8.36c5.7,0.4,8.96,2.59,9.75,6.57c0.53,2.92-0.53,6.17-3.18,9.75c0.8,4.11,1.82,8.59,3.08,13.43   c1.26,4.84,2.35,8.79,3.28,11.84c0.93,3.05,1.82,6.67,2.69,10.85c0.86,4.18,1.26,7.66,1.19,10.45c-0.07,2.79-0.43,6.44-1.09,10.94   c10.75-0.53,19.43-8.03,26.07-22.49c0.53-0.66,1.42-0.8,2.69-0.4c1.26,0.4,2.45,1.13,3.58,2.19c1.12,1.06,1.56,1.92,1.29,2.59   c-9.15,18.97-21.89,28.33-38.21,28.06C1146.6,147.21,1136.45,151.39,1122.52,151.39z"/>
</g>
<g>
</g>
<g>
</g>
<g>
</g>
<g>
</g>
<g>
</g>
<g>
</g>
<g>
</g>
<g>
</g>
<g>
</g>
<g>
</g>
<g>
</g>
<g>
</g>
<g>
</g>
<g>
</g>
<g>
</g>
</svg>